<svg width="256" height="256" viewBox="0 0 256 256" fill="none" xmlns="http://www.w3.org/2000/svg">
  <rect width="256" height="256" rx="52" fill="white"/>
  <g fill="#111111">
    <rect x="20" y="96" width="38" height="14" rx="7"/>
    <rect x="20" y="126" width="38" height="14" rx="7"/>
    <path d="M70 176V80H94L126 124L158 80H182V176H160V118L126 166L92 118V176H70Z"/>
    <path d="M152 80H196C218 80 234 94 234 113C234 126 227 136 216 141C230 146 242 158 242 175C242 199 223 214 196 214H152V192H195C208 192 220 185 220 174C220 163 208 156 195 156H152V134H192C204 134 212 127 212 116C212 105 204 102 192 102H152V80Z"/>
  </g>
</svg>
