<svg version="1.1" id="Layer_1" xmlns="http://www.w3.org/2000/svg" xmlns:xlink="http://www.w3.org/1999/xlink" x="0px" y="0px"
	 width="100%" viewBox="0 0 1254 1254" enable-background="new 0 0 1254 1254" xml:space="preserve">
<path fill="#06152B" opacity="1.000000" stroke="none" 
	d="
M581.000000,1255.000000 
	C387.333344,1255.000000 194.166672,1255.000000 1.000000,1255.000000 
	C1.000000,837.000000 1.000000,419.000000 1.000000,1.000000 
	C419.000000,1.000000 837.000000,1.000000 1255.000000,1.000000 
	C1255.000000,419.000000 1255.000000,837.000000 1255.000000,1255.000000 
	C1030.500000,1255.000000 806.000000,1255.000000 581.000000,1255.000000 
M736.790771,795.132141 
	C737.860291,795.076721 738.929810,795.021301 740.740723,795.128418 
	C741.493958,795.078247 742.247131,795.028015 743.666138,795.136841 
	C744.115356,795.079956 744.564636,795.023010 745.859680,795.368530 
	C746.212280,797.251465 746.866760,799.133545 746.872070,801.017456 
	C746.944336,826.669983 746.926819,852.322754 746.931396,877.975464 
	C746.931763,880.073975 746.931396,882.172424 746.931396,884.280762 
	C814.576050,884.280762 881.456787,884.280762 948.891052,884.280762 
	C948.891052,874.229248 948.891052,864.596497 948.963440,854.964294 
	C948.963440,854.964294 948.963623,854.891968 949.903625,854.843262 
	C957.953430,854.834717 966.005188,854.914551 974.051147,854.733948 
	C975.454407,854.702515 976.833069,853.574097 978.421265,852.040527 
	C978.483398,844.739746 978.465088,837.436646 978.668091,830.139771 
	C978.715027,828.450195 979.517578,826.781555 980.890991,825.313843 
	C988.601074,825.234619 996.311218,825.155457 1004.664551,825.226624 
	C1005.101135,825.188782 1005.537659,825.151001 1006.549316,825.300720 
	C1007.092163,823.512512 1008.017029,821.744385 1008.112305,819.932678 
	C1008.548828,811.633667 1008.753113,803.322510 1009.962341,795.139038 
	C1014.970581,795.109680 1019.978821,795.080322 1025.755737,795.237122 
	C1029.135132,795.237122 1032.514404,795.237122 1035.998169,795.237122 
	C1035.998169,788.410706 1035.998169,782.206848 1036.141113,775.105286 
	C1036.117310,772.077881 1036.093506,769.050537 1036.385742,765.261658 
	C1036.255249,750.842590 1036.124756,736.423523 1036.137451,721.075989 
	C1036.137451,706.470764 1036.137451,691.865540 1036.137451,676.618164 
	C1026.132446,676.618164 1017.241638,676.618164 1007.988159,676.618164 
	C1007.988159,666.687927 1007.988159,657.411011 1007.988159,647.429321 
	C998.061401,647.429321 988.518005,647.429321 978.928589,647.429321 
	C978.928589,627.157654 978.928589,607.605408 978.928589,587.534485 
	C988.427185,587.534485 997.526062,587.534485 1007.222046,587.534485 
	C1007.222046,577.491699 1007.222046,567.950989 1007.222046,557.833130 
	C1016.052795,557.833130 1024.278931,557.833130 1032.232544,557.833130 
	C1033.275757,527.242798 1034.297729,497.272308 1035.337769,466.775360 
	C1026.178589,466.775360 1017.589783,466.775360 1008.563354,466.775360 
	C1008.563354,456.664612 1008.563354,447.058350 1008.563354,436.903137 
	C998.542358,436.903137 988.966736,436.903137 978.719849,436.903137 
	C978.719849,426.640961 978.719849,416.926514 978.719849,406.939758 
	C968.380066,406.939758 958.726685,406.939758 948.903564,406.025787 
	C948.869080,397.418304 948.715210,388.808777 948.863525,380.204437 
	C948.916870,377.108093 947.760376,376.369812 944.239929,376.967316 
	C938.483948,377.002350 932.727905,377.037384 926.198669,376.927277 
	C922.474915,376.976807 918.751221,377.026337 914.121399,376.948639 
	C911.072083,376.990540 908.022766,377.032410 904.423523,376.925903 
	C903.291504,376.975708 902.159424,377.025513 900.094116,376.948090 
	C891.720520,376.989563 883.346863,377.031006 874.176453,376.926849 
	C867.126709,376.976227 860.077026,377.025574 852.104187,376.948364 
	C848.060486,376.991394 844.016846,377.034424 839.600281,376.929962 
	C839.075989,376.979248 838.551636,377.028564 837.094177,376.950500 
	C829.389160,377.007538 821.684143,377.064575 813.505127,377.016205 
	C813.505127,377.016205 813.031250,377.122437 812.114624,376.979309 
	C808.401123,377.009399 804.687683,377.039490 800.177856,376.921997 
	C793.794312,376.971588 787.410828,377.021210 780.097107,376.941956 
	C764.724548,376.983551 749.352051,377.025146 733.186829,376.922119 
	C729.276367,376.900208 725.358337,376.740143 721.460571,376.951904 
	C720.465027,377.005981 719.533508,378.237457 718.406433,379.555786 
	C718.458618,379.982025 718.510803,380.408234 718.354614,381.539703 
	C718.425110,382.755676 718.495544,383.971649 718.384277,386.084595 
	C718.445496,402.382446 718.506653,418.680298 718.351807,435.850983 
	C718.422729,438.240875 718.493591,440.630768 718.385925,443.910919 
	C718.445862,446.932983 718.505859,449.955048 718.351562,453.838409 
	C718.423950,455.899170 718.496399,457.959930 718.391418,460.939850 
	C718.365906,472.382294 718.295898,483.824890 718.324890,495.267181 
	C718.371155,513.502869 718.483337,531.738403 718.378296,550.648560 
	C718.441772,551.106934 718.505249,551.565369 718.385681,552.941589 
	C718.445801,561.620422 718.505920,570.299194 718.350037,579.893616 
	C718.421326,585.269348 718.492676,590.645020 718.387756,596.919128 
	C718.446838,600.271545 718.505859,603.623962 718.351624,607.894104 
	C718.423584,613.935547 718.495544,619.976929 718.382629,626.936646 
	C718.444153,651.949890 718.505615,676.963074 718.356018,702.769470 
	C718.427063,703.853210 718.498047,704.936890 718.386047,706.937622 
	C718.445984,712.617737 718.505920,718.297852 718.347351,724.875854 
	C718.421326,728.256226 718.495239,731.636536 718.389709,735.936096 
	C718.448792,742.950745 718.507874,749.965332 718.352661,757.897339 
	C718.426086,768.996582 718.499512,780.095764 718.406250,791.773254 
	C718.463013,792.166382 718.519775,792.559509 718.448975,793.714600 
	C718.964233,794.132629 719.479431,794.550598 720.659546,795.099426 
	C721.106384,795.054077 721.553284,795.008789 722.916687,795.130310 
	C727.277954,795.077087 731.639160,795.023926 736.790771,795.132141 
M570.366333,795.167358 
	C569.828247,795.402710 569.290161,795.638062 568.451477,796.652039 
	C568.451477,825.739746 568.451477,854.827393 568.451477,884.154907 
	C569.580872,884.291992 570.374084,884.472229 571.167419,884.472534 
	C618.945374,884.492188 666.723267,884.507874 714.501160,884.442322 
	C715.732422,884.440613 716.962524,883.533142 718.376343,882.563599 
	C718.315674,882.058105 718.254944,881.552551 718.432983,880.295288 
	C718.366882,879.518188 718.300842,878.741150 718.442932,877.052856 
	C718.442932,849.869385 718.442932,822.685974 718.442932,795.039734 
	C708.220581,795.039734 698.607239,795.039734 689.008362,794.989441 
	C689.008362,794.989441 688.959106,795.007141 688.870667,794.073181 
	C688.847534,791.906494 688.804016,789.739746 688.804016,787.573059 
	C688.804932,653.076111 688.809509,518.579102 688.813660,384.082153 
	C688.813721,381.779510 688.813721,379.476868 688.813721,376.768555 
	C659.161011,376.768555 629.948914,376.768555 599.995972,376.768555 
	C599.995972,387.075409 599.995972,397.035187 599.060547,406.940948 
	C589.751160,406.940948 580.441772,406.940948 570.381409,406.940948 
	C570.381409,417.013977 570.381409,426.742798 570.381409,437.077423 
	C559.923584,437.077423 550.206848,437.077423 539.951233,437.077423 
	C539.951233,447.280151 539.951233,456.857605 539.951233,466.945618 
	C529.646362,466.945618 519.894409,466.945618 509.373657,466.945618 
	C509.373657,487.170074 509.373657,506.880554 509.373657,526.640198 
	C507.968933,526.816406 507.326782,526.966553 506.684479,526.967407 
	C487.360382,526.991943 468.036224,527.020447 448.712311,526.970337 
	C447.473419,526.967102 446.236206,526.337402 445.122681,525.068909 
	C445.111084,506.031128 445.099518,486.993317 444.609650,467.224670 
	C435.174072,467.224670 425.738495,467.224670 415.604767,467.224670 
	C415.604767,456.715973 415.604767,446.995422 415.604767,436.717651 
	C405.335114,436.717651 395.762451,436.717651 385.706726,436.717651 
	C385.706726,426.564819 385.706726,416.981445 385.706726,406.768005 
	C375.506592,406.768005 365.803925,406.768005 355.885742,406.768005 
	C355.885742,398.975342 355.971375,391.825958 355.841858,384.680511 
	C355.792816,381.975433 355.247528,379.279327 354.022400,376.366455 
	C324.117310,376.344421 294.212128,376.301514 264.307251,376.370209 
	C262.996948,376.373199 261.688995,377.397919 260.218628,378.878510 
	C260.196106,380.043732 260.153595,381.208954 260.153870,382.374176 
	C260.178833,490.270294 260.227112,598.166443 260.222137,706.062561 
	C260.220764,735.697815 260.060699,765.333130 259.041321,795.012573 
	C250.807129,795.030396 242.570831,794.959290 234.340790,795.153564 
	C232.968155,795.185913 231.622742,796.372375 230.177490,797.813721 
	C230.215210,798.867920 230.252930,799.922119 230.134598,801.904236 
	C230.200989,822.945251 230.267365,843.986328 230.213715,865.758728 
	C230.251175,866.496704 230.288635,867.234680 230.162262,868.897644 
	C230.162262,873.981934 230.162262,879.066223 230.162262,884.308899 
	C282.363953,884.308899 333.967957,884.308899 385.712250,884.308899 
	C385.712250,877.561340 385.712250,871.264587 385.831970,864.125916 
	C385.794312,862.427734 385.756683,860.729492 385.881927,858.102539 
	C385.881927,837.202026 385.881927,816.301514 385.881927,794.954468 
	C375.335236,794.954468 365.683655,794.954468 355.906433,794.030212 
	C355.906433,715.439819 355.906433,636.849426 355.906433,558.016235 
	C366.027405,558.016235 375.580658,558.016235 385.724487,558.016235 
	C385.724487,567.929077 385.724487,577.510132 385.724487,587.664185 
	C395.716797,587.664185 405.126678,587.664185 415.080505,587.664185 
	C415.080505,597.813660 415.080505,607.384888 415.080505,617.655334 
	C425.341980,617.655334 435.052917,617.655334 445.184143,617.655334 
	C445.184143,627.961548 445.184143,637.561401 445.184143,647.418091 
	C466.819611,647.418091 488.004852,647.418091 509.909851,647.418091 
	C509.909851,637.263489 509.909851,627.552124 509.909851,617.274780 
	C520.215515,617.274780 529.802429,617.274780 539.908142,617.274780 
	C539.908142,607.107300 539.908142,597.527405 539.908142,587.296875 
	C550.160583,587.296875 559.881165,587.296875 570.126709,587.296875 
	C570.126709,577.061096 570.126709,567.491394 570.126709,558.028137 
	C580.115295,558.028137 589.544983,558.028137 599.496765,558.028137 
	C599.496765,560.518311 599.518494,562.646057 599.493042,564.773254 
	C599.371521,574.927368 599.139954,585.081177 599.123291,595.235352 
	C599.016724,660.211548 598.963501,725.187744 598.841797,790.163879 
	C598.838562,791.904602 598.257446,793.644348 597.025757,795.241211 
	C588.344055,795.284790 579.662292,795.328369 570.366333,795.167358 
z"/>
<path fill="#03C9A5" opacity="1.000000" stroke="none" 
	d="
M259.973450,794.968384 
	C260.060699,765.333130 260.220764,735.697815 260.222137,706.062561 
	C260.227112,598.166443 260.178833,490.270294 260.153870,382.374176 
	C260.153595,381.208954 260.196106,380.043732 260.743652,378.425598 
	C290.449738,377.979919 319.630829,378.015411 348.811584,377.933350 
	C350.851776,377.927643 352.889557,377.050873 354.928406,376.579132 
	C355.247528,379.279327 355.792816,381.975433 355.841858,384.680511 
	C355.971375,391.825958 355.885742,398.975342 355.885742,406.768005 
	C365.803925,406.768005 375.506592,406.768005 385.706726,406.768005 
	C385.706726,416.981445 385.706726,426.564819 385.706726,436.717651 
	C395.762451,436.717651 405.335114,436.717651 415.604767,436.717651 
	C415.604767,446.995422 415.604767,456.715973 415.604767,467.224670 
	C425.738495,467.224670 435.174072,467.224670 444.675476,467.968750 
	C444.503296,470.002899 444.061829,471.292419 444.058105,472.583160 
	C444.011597,488.782135 444.001251,504.981476 444.071320,521.180298 
	C444.078278,522.787842 444.675140,524.392944 444.998199,525.999146 
	C446.236206,526.337402 447.473419,526.967102 448.712311,526.970337 
	C468.036224,527.020447 487.360382,526.991943 506.684479,526.967407 
	C507.326782,526.966553 507.968933,526.816406 509.373657,526.640198 
	C509.373657,506.880554 509.373657,487.170074 509.373657,466.945618 
	C519.894409,466.945618 529.646362,466.945618 539.951233,466.945618 
	C539.951233,456.857605 539.951233,447.280151 539.951233,437.077423 
	C550.206848,437.077423 559.923584,437.077423 570.381409,437.077423 
	C570.381409,426.742798 570.381409,417.013977 570.381409,406.940948 
	C580.441772,406.940948 589.751160,406.940948 599.801025,406.707214 
	C601.031677,404.606964 601.880127,402.752716 601.944763,400.871552 
	C602.138916,395.216492 602.162231,389.546875 601.991455,383.890778 
	C601.861694,379.591156 603.694214,377.891113 607.943787,377.998016 
	C614.600037,378.165497 621.263733,378.032959 627.924316,378.032440 
	C645.408325,378.031067 662.893005,378.117340 680.375854,377.974396 
	C684.887390,377.937531 687.474121,379.216125 686.994995,384.188202 
	C686.883728,385.342834 686.985229,386.517792 686.985229,387.683380 
	C686.987915,503.574615 687.000671,619.465820 686.973816,735.357056 
	C686.971558,745.145325 686.582886,754.933838 686.596130,764.721863 
	C686.608276,773.684448 686.857544,782.648926 687.181458,791.606079 
	C687.223145,792.759705 688.340210,793.874390 688.959106,795.007141 
	C688.959106,795.007141 689.008362,794.989441 689.228516,795.274902 
	C696.108643,798.548523 702.762146,801.551453 709.440308,804.498413 
	C710.010315,804.750061 710.826904,804.854248 711.389587,804.647583 
	C716.788147,802.664551 717.035095,805.840698 717.018372,809.881104 
	C716.934387,830.167969 716.942078,850.455505 717.040955,870.742310 
	C717.052673,873.151428 717.818420,875.556885 718.234741,877.964050 
	C718.300842,878.741150 718.366882,879.518188 718.161133,880.843933 
	C717.590942,881.923584 717.292480,882.454651 716.525879,882.999939 
	C682.727051,883.014404 649.396362,883.013672 616.065674,883.015442 
	C602.733398,883.016174 589.400879,882.977600 576.069031,883.055664 
	C572.398621,883.077148 569.955933,882.268860 569.969666,877.862488 
	C570.048584,852.531555 570.029175,827.200256 570.008362,801.869080 
	C570.005615,798.536621 571.540344,796.971619 574.858704,796.985474 
	C580.524597,797.009033 586.196106,797.105530 591.854187,796.886353 
	C593.901001,796.807007 595.916199,795.908997 597.945801,795.384521 
	C598.257446,793.644348 598.838562,791.904602 598.841797,790.163879 
	C598.963501,725.187744 599.016724,660.211548 599.123291,595.235352 
	C599.139954,585.081177 599.371521,574.927368 599.493042,564.773254 
	C599.518494,562.646057 599.496765,560.518311 599.496765,558.028137 
	C589.544983,558.028137 580.115295,558.028137 570.126709,558.028137 
	C570.126709,567.491394 570.126709,577.061096 570.126709,587.296875 
	C559.881165,587.296875 550.160583,587.296875 539.908142,587.296875 
	C539.908142,597.527405 539.908142,607.107300 539.908142,617.274780 
	C529.802429,617.274780 520.215515,617.274780 509.909851,617.274780 
	C509.909851,627.552124 509.909851,637.263489 509.909851,647.418091 
	C488.004852,647.418091 466.819611,647.418091 445.184143,647.418091 
	C445.184143,637.561401 445.184143,627.961548 445.184143,617.655334 
	C435.052917,617.655334 425.341980,617.655334 415.080505,617.655334 
	C415.080505,607.384888 415.080505,597.813660 415.080505,587.664185 
	C405.126678,587.664185 395.716797,587.664185 385.724487,587.664185 
	C385.724487,577.510132 385.724487,567.929077 385.724487,558.016235 
	C375.580658,558.016235 366.027405,558.016235 355.906433,558.016235 
	C355.906433,636.849426 355.906433,715.439819 356.209412,794.776611 
	C358.395599,795.978638 360.266052,796.751343 362.164490,796.827698 
	C366.972595,797.020935 371.793274,796.900146 376.608917,796.908020 
	C384.108429,796.920288 384.090271,796.921265 384.084778,804.164551 
	C384.072723,820.106018 384.014069,836.048096 384.153778,851.988342 
	C384.174377,854.340393 385.172943,856.683838 385.719055,859.031311 
	C385.756683,860.729492 385.794312,862.427734 385.522278,864.815796 
	C384.822632,869.250488 384.288910,872.987732 384.087555,876.742676 
	C383.922638,879.818115 383.024170,881.901978 379.533569,881.978943 
	C363.958069,882.322205 348.384003,882.912720 332.807678,882.975037 
	C321.567566,883.020020 310.326324,882.173523 299.082672,882.081055 
	C279.470856,881.919739 259.856750,882.043030 240.243622,882.026672 
	C232.248947,882.019958 232.189407,881.840759 231.845856,874.053284 
	C231.755661,872.008057 230.854736,869.998535 230.326111,867.972656 
	C230.288635,867.234680 230.251175,866.496704 230.516510,865.120789 
	C231.176102,863.062317 231.837723,861.643066 231.843506,860.221130 
	C231.917007,842.155884 231.938828,824.089966 231.829437,806.025085 
	C231.819214,804.339111 230.826950,802.659119 230.290649,800.976318 
	C230.252930,799.922119 230.215210,798.867920 230.672363,797.392822 
	C238.640945,796.947998 246.119324,797.063354 253.585403,796.812500 
	C255.732971,796.740356 257.845062,795.612305 259.973450,794.968384 
z"/>
<path fill="#03C9A5" opacity="1.000000" stroke="none" 
	d="
M733.979492,377.066742 
	C749.352051,377.025146 764.724548,376.983551 780.813477,377.280090 
	C788.070557,379.534973 794.581055,380.382233 800.974182,377.069580 
	C804.687683,377.039490 808.401123,377.009399 812.689697,377.082031 
	C813.264832,377.184753 813.625427,377.197296 813.625427,377.197296 
	C813.625427,377.197296 813.979126,377.121643 813.979126,377.121643 
	C821.684143,377.064575 829.389160,377.007538 837.665771,377.174622 
	C838.815979,377.291626 839.394531,377.184509 839.973145,377.077393 
	C844.016846,377.034424 848.060486,376.991394 852.817688,377.284546 
	C860.730286,379.461182 867.907043,380.429077 874.973267,377.072449 
	C883.346863,377.031006 891.720520,376.989563 900.730164,377.237488 
	C902.568604,377.376038 903.771057,377.225189 904.973450,377.074280 
	C908.022766,377.032410 911.072083,376.990540 914.821350,377.281921 
	C919.437073,379.521118 923.286987,380.037109 926.971924,377.072418 
	C932.727905,377.037384 938.483948,377.002350 944.836426,377.426208 
	C945.956238,379.792938 946.861328,381.686890 946.931396,383.611237 
	C947.143616,389.434998 946.865906,395.278320 947.139282,401.097107 
	C947.231934,403.070587 948.397827,404.993652 949.073242,406.939758 
	C958.726685,406.939758 968.380066,406.939758 978.719849,406.939758 
	C978.719849,416.926514 978.719849,426.640961 978.719849,436.903137 
	C988.966736,436.903137 998.542358,436.903137 1008.563354,436.903137 
	C1008.563354,447.058350 1008.563354,456.664612 1008.563354,466.775360 
	C1017.589783,466.775360 1026.178589,466.775360 1035.337769,466.775360 
	C1034.297729,497.272308 1033.275757,527.242798 1032.232544,557.833130 
	C1024.278931,557.833130 1016.052795,557.833130 1007.222046,557.833130 
	C1007.222046,567.950989 1007.222046,577.491699 1007.222046,587.534485 
	C997.526062,587.534485 988.427185,587.534485 978.928589,587.534485 
	C978.928589,607.605408 978.928589,627.157654 978.928589,647.429321 
	C988.518005,647.429321 998.061401,647.429321 1007.988159,647.429321 
	C1007.988159,657.411011 1007.988159,666.687927 1007.988159,676.618164 
	C1017.241638,676.618164 1026.132446,676.618164 1036.137451,676.618164 
	C1036.137451,691.865540 1036.137451,706.470764 1035.907104,721.919617 
	C1035.463501,735.234741 1035.201660,747.705872 1035.087646,760.178284 
	C1035.069824,762.123352 1035.725586,764.074707 1036.069702,766.023132 
	C1036.093506,769.050537 1036.117310,772.077881 1035.910645,775.932861 
	C1035.450928,780.524414 1035.124878,784.285706 1035.021851,788.053040 
	C1034.934448,791.249756 1033.582031,792.789124 1030.285645,793.091675 
	C1028.474731,793.257874 1026.750366,794.366943 1024.987061,795.050903 
	C1019.978821,795.080322 1014.970581,795.109680 1009.195007,795.276855 
	C1007.628662,797.971375 1006.256409,800.502319 1006.139709,803.089844 
	C1005.809448,810.418579 1005.993042,817.770447 1005.974243,825.113220 
	C1005.537659,825.151001 1005.101135,825.188782 1003.965942,824.981323 
	C995.502441,824.858459 987.737427,824.980835 979.972534,825.103271 
	C979.517578,826.781555 978.715027,828.450195 978.668091,830.139771 
	C978.465088,837.436646 978.483398,844.739746 977.903748,852.511658 
	C969.895203,853.002014 962.400269,852.895020 954.915649,853.124451 
	C952.915466,853.185791 950.946777,854.274841 948.963623,854.891968 
	C948.963623,854.891968 948.963440,854.964294 948.651489,855.216492 
	C947.903320,861.196716 947.240356,866.918579 947.083313,872.654297 
	C946.842285,881.457825 946.470337,882.000610 937.673340,882.001465 
	C879.226746,882.007385 820.780090,882.004639 762.333496,882.004028 
	C749.275391,882.003845 749.060181,881.852905 748.984619,868.674133 
	C748.903381,854.520874 748.962463,840.366760 748.955994,826.213013 
	C748.951965,817.387817 749.002991,808.561829 748.890320,799.737976 
	C748.859436,797.319641 749.014954,794.343567 745.013855,794.966125 
	C744.564636,795.023010 744.115356,795.079956 743.490112,794.790527 
	C743.450623,793.001221 744.213562,790.674500 743.623718,790.256226 
	C739.207764,787.125671 725.249512,790.340210 722.000122,794.963379 
	C721.553284,795.008789 721.106384,795.054077 720.174133,794.765381 
	C719.318054,793.938477 718.947327,793.445557 718.576599,792.952637 
	C718.519775,792.559509 718.463013,792.166382 718.706299,791.110229 
	C719.191040,779.863464 719.391479,769.279907 719.516785,758.695557 
	C719.523499,758.127502 718.898132,757.552002 718.567017,756.979980 
	C718.507874,749.965332 718.448792,742.950745 718.693176,735.199951 
	C718.853027,730.968567 718.709473,727.473267 718.565857,723.977966 
	C718.505920,718.297852 718.445984,712.617737 718.658997,706.292114 
	C718.810364,704.423157 718.688782,703.199768 718.567139,701.976318 
	C718.505615,676.963074 718.444153,651.949890 718.692749,626.191650 
	C718.856873,619.289917 718.710938,613.133118 718.564941,606.976379 
	C718.505859,603.623962 718.446838,600.271545 718.693420,596.184082 
	C718.854675,589.958679 718.710327,584.468384 718.565979,578.978027 
	C718.505920,570.299194 718.445801,561.620422 718.612732,552.365234 
	C718.749023,551.183899 718.658325,550.578918 718.567627,549.973999 
	C718.483337,531.738403 718.371155,513.502869 718.324890,495.267181 
	C718.295898,483.824890 718.365906,472.382294 718.683167,460.234070 
	C718.838562,457.344574 718.702209,455.160858 718.565857,452.977112 
	C718.505859,449.955048 718.445862,446.932983 718.681396,443.209229 
	C718.840576,439.997711 718.704224,437.487946 718.567871,434.978149 
	C718.506653,418.680298 718.445496,402.382446 718.632690,385.736084 
	C719.216187,385.537292 719.551208,385.687073 720.108398,386.121582 
	C724.864563,389.746307 728.751404,386.143799 732.652283,384.839355 
	C733.624207,384.514404 733.520752,380.973724 733.924194,378.604218 
	C733.950928,377.887146 733.965210,377.476959 733.979492,377.066742 
M860.500000,587.318420 
	C879.416199,587.318420 898.332336,587.318420 917.834900,587.318420 
	C917.834900,577.108643 917.834900,567.696350 917.834900,557.678162 
	C928.145752,557.678162 937.877197,557.678162 947.666870,557.678162 
	C947.666870,537.181335 947.666870,517.308472 947.666870,496.932983 
	C937.637146,496.932983 928.048523,496.932983 917.679688,496.932983 
	C917.679688,486.750000 917.679688,477.058685 917.679688,467.553192 
	C879.503845,467.553192 842.126709,467.553192 804.149902,467.553192 
	C804.149902,507.548859 804.149902,547.107300 804.149902,587.321899 
	C822.626160,587.321899 841.063049,587.321899 860.500000,587.318420 
M948.102417,753.469666 
	C948.102417,737.725342 948.102417,721.981018 948.102417,705.711060 
	C937.613525,705.711060 928.017578,705.711060 917.789978,705.711060 
	C917.789978,695.797363 917.789978,686.410339 917.789978,676.796509 
	C879.752197,676.796509 842.362793,676.796509 804.661377,676.796509 
	C804.661377,716.327148 804.661377,755.522888 804.661377,794.741638 
	C842.477905,794.741638 879.877747,794.741638 917.997070,794.741638 
	C917.997070,784.848206 917.997070,775.309937 917.997070,765.323059 
	C928.328857,765.323059 937.948303,765.323059 947.339172,765.323059 
	C947.691467,764.545715 947.937622,764.250244 947.944641,763.949097 
	C948.018616,760.785645 948.054443,757.621216 948.102417,753.469666 
z"/>
<path fill="#05D5AC" opacity="1.000000" stroke="none" 
	d="
M688.914917,794.540161 
	C688.340210,793.874390 687.223145,792.759705 687.181458,791.606079 
	C686.857544,782.648926 686.608276,773.684448 686.596130,764.721863 
	C686.582886,754.933838 686.971558,745.145325 686.973816,735.357056 
	C687.000671,619.465820 686.987915,503.574615 686.985229,387.683380 
	C686.985229,386.517792 686.883728,385.342834 686.994995,384.188202 
	C687.474121,379.216125 684.887390,377.937531 680.375854,377.974396 
	C662.893005,378.117340 645.408325,378.031067 627.924316,378.032440 
	C621.263733,378.032959 614.600037,378.165497 607.943787,377.998016 
	C603.694214,377.891113 601.861694,379.591156 601.991455,383.890778 
	C602.162231,389.546875 602.138916,395.216492 601.944763,400.871552 
	C601.880127,402.752716 601.031677,404.606964 600.268738,406.734222 
	C599.995972,397.035187 599.995972,387.075409 599.995972,376.768555 
	C629.948914,376.768555 659.161011,376.768555 688.813721,376.768555 
	C688.813721,379.476868 688.813721,381.779510 688.813660,384.082153 
	C688.809509,518.579102 688.804932,653.076111 688.804016,787.573059 
	C688.804016,789.739746 688.847534,791.906494 688.914917,794.540161 
z"/>
<path fill="#05BFA0" opacity="1.000000" stroke="none" 
	d="
M745.436768,795.167358 
	C749.014954,794.343567 748.859436,797.319641 748.890320,799.737976 
	C749.002991,808.561829 748.951965,817.387817 748.955994,826.213013 
	C748.962463,840.366760 748.903381,854.520874 748.984619,868.674133 
	C749.060181,881.852905 749.275391,882.003845 762.333496,882.004028 
	C820.780090,882.004639 879.226746,882.007385 937.673340,882.001465 
	C946.470337,882.000610 946.842285,881.457825 947.083313,872.654297 
	C947.240356,866.918579 947.903320,861.196716 948.615356,855.216248 
	C948.891052,864.596497 948.891052,874.229248 948.891052,884.280762 
	C881.456787,884.280762 814.576050,884.280762 746.931396,884.280762 
	C746.931396,882.172424 746.931763,880.073975 746.931396,877.975464 
	C746.926819,852.322754 746.944336,826.669983 746.872070,801.017456 
	C746.866760,799.133545 746.212280,797.251465 745.436768,795.167358 
z"/>
<path fill="#05B699" opacity="1.000000" stroke="none" 
	d="
M230.244186,868.435181 
	C230.854736,869.998535 231.755661,872.008057 231.845856,874.053284 
	C232.189407,881.840759 232.248947,882.019958 240.243622,882.026672 
	C259.856750,882.043030 279.470856,881.919739 299.082672,882.081055 
	C310.326324,882.173523 321.567566,883.020020 332.807678,882.975037 
	C348.384003,882.912720 363.958069,882.322205 379.533569,881.978943 
	C383.024170,881.901978 383.922638,879.818115 384.087555,876.742676 
	C384.288910,872.987732 384.822632,869.250488 385.462433,865.236755 
	C385.712250,871.264587 385.712250,877.561340 385.712250,884.308899 
	C333.967957,884.308899 282.363953,884.308899 230.162262,884.308899 
	C230.162262,879.066223 230.162262,873.981934 230.244186,868.435181 
z"/>
<path fill="#05E1B7" opacity="1.000000" stroke="none" 
	d="
M597.485779,795.312866 
	C595.916199,795.908997 593.901001,796.807007 591.854187,796.886353 
	C586.196106,797.105530 580.524597,797.009033 574.858704,796.985474 
	C571.540344,796.971619 570.005615,798.536621 570.008362,801.869080 
	C570.029175,827.200256 570.048584,852.531555 569.969666,877.862488 
	C569.955933,882.268860 572.398621,883.077148 576.069031,883.055664 
	C589.400879,882.977600 602.733398,883.016174 616.065674,883.015442 
	C649.396362,883.013672 682.727051,883.014404 716.825562,883.017273 
	C717.793274,883.029663 717.993225,883.038879 718.193115,883.048096 
	C716.962524,883.533142 715.732422,884.440613 714.501160,884.442322 
	C666.723267,884.507874 618.945374,884.492188 571.167419,884.472534 
	C570.374084,884.472229 569.580872,884.291992 568.451477,884.154907 
	C568.451477,854.827393 568.451477,825.739746 568.890015,796.246460 
	C569.879272,795.684631 570.429932,795.528259 570.980591,795.371948 
	C579.662292,795.328369 588.344055,795.284790 597.485779,795.312866 
z"/>
<path fill="#05D5AC" opacity="1.000000" stroke="none" 
	d="
M718.338806,877.508423 
	C717.818420,875.556885 717.052673,873.151428 717.040955,870.742310 
	C716.942078,850.455505 716.934387,830.167969 717.018372,809.881104 
	C717.035095,805.840698 716.788147,802.664551 711.389587,804.647583 
	C710.826904,804.854248 710.010315,804.750061 709.440308,804.498413 
	C702.762146,801.551453 696.108643,798.548523 689.221313,795.300049 
	C698.607239,795.039734 708.220581,795.039734 718.442932,795.039734 
	C718.442932,822.685974 718.442932,849.869385 718.338806,877.508423 
z"/>
<path fill="#05E1BA" opacity="1.000000" stroke="none" 
	d="
M354.475403,376.472778 
	C352.889557,377.050873 350.851776,377.927643 348.811584,377.933350 
	C319.630829,378.015411 290.449738,377.979919 260.824310,377.959717 
	C261.688995,377.397919 262.996948,376.373199 264.307251,376.370209 
	C294.212128,376.301514 324.117310,376.344421 354.475403,376.472778 
z"/>
<path fill="#05B699" opacity="1.000000" stroke="none" 
	d="
M385.800476,858.566895 
	C385.172943,856.683838 384.174377,854.340393 384.153778,851.988342 
	C384.014069,836.048096 384.072723,820.106018 384.084778,804.164551 
	C384.090271,796.921265 384.108429,796.920288 376.608917,796.908020 
	C371.793274,796.900146 366.972595,797.020935 362.164490,796.827698 
	C360.266052,796.751343 358.395599,795.978638 356.272278,795.238770 
	C365.683655,794.954468 375.335236,794.954468 385.881927,794.954468 
	C385.881927,816.301514 385.881927,837.202026 385.800476,858.566895 
z"/>
<path fill="#05B699" opacity="1.000000" stroke="none" 
	d="
M230.212616,801.440308 
	C230.826950,802.659119 231.819214,804.339111 231.829437,806.025085 
	C231.938828,824.089966 231.917007,842.155884 231.843506,860.221130 
	C231.837723,861.643066 231.176102,863.062317 230.576523,864.755127 
	C230.267365,843.986328 230.200989,822.945251 230.212616,801.440308 
z"/>
<path fill="#03C9A5" opacity="1.000000" stroke="none" 
	d="
M733.911621,378.911072 
	C733.520752,380.973724 733.624207,384.514404 732.652283,384.839355 
	C728.751404,386.143799 724.864563,389.746307 720.108643,385.748901 
	C719.445435,383.672516 719.004211,382.253510 718.562988,380.834473 
	C718.510803,380.408234 718.458618,379.982025 718.984314,379.241272 
	C724.345337,378.921539 729.128479,378.916321 733.911621,378.911072 
z"/>
<path fill="#03C9A5" opacity="1.000000" stroke="none" 
	d="
M722.458374,795.046875 
	C725.249512,790.340210 739.207764,787.125671 743.623718,790.256226 
	C744.213562,790.674500 743.450623,793.001221 743.157227,794.710999 
	C742.247131,795.028015 741.493958,795.078247 740.201538,794.812256 
	C738.441650,794.654358 737.221069,794.812561 736.000427,794.970764 
	C731.639160,795.023926 727.277954,795.077087 722.458374,795.046875 
z"/>
<path fill="#05BFA0" opacity="1.000000" stroke="none" 
	d="
M1036.227783,765.642395 
	C1035.725586,764.074707 1035.069824,762.123352 1035.087646,760.178284 
	C1035.201660,747.705872 1035.463501,735.234741 1035.835449,722.383850 
	C1036.124756,736.423523 1036.255249,750.842590 1036.227783,765.642395 
z"/>
<path fill="#05BFA0" opacity="1.000000" stroke="none" 
	d="
M1006.261780,825.206970 
	C1005.993042,817.770447 1005.809448,810.418579 1006.139709,803.089844 
	C1006.256409,800.502319 1007.628662,797.971375 1008.734192,795.215149 
	C1008.753113,803.322510 1008.548828,811.633667 1008.112305,819.932678 
	C1008.017029,821.744385 1007.092163,823.512512 1006.261780,825.206970 
z"/>
<path fill="#05BFA0" opacity="1.000000" stroke="none" 
	d="
M1025.371338,795.144043 
	C1026.750366,794.366943 1028.474731,793.257874 1030.285645,793.091675 
	C1033.582031,792.789124 1034.934448,791.249756 1035.021851,788.053040 
	C1035.124878,784.285706 1035.450928,780.524414 1035.839111,776.381714 
	C1035.998169,782.206848 1035.998169,788.410706 1035.998169,795.237122 
	C1032.514404,795.237122 1029.135132,795.237122 1025.371338,795.144043 
z"/>
<path fill="#05BFA0" opacity="1.000000" stroke="none" 
	d="
M718.459839,757.438660 
	C718.898132,757.552002 719.523499,758.127502 719.516785,758.695557 
	C719.391479,769.279907 719.191040,779.863464 718.789673,790.821045 
	C718.499512,780.095764 718.426086,768.996582 718.459839,757.438660 
z"/>
<path fill="#05BFA0" opacity="1.000000" stroke="none" 
	d="
M874.574829,376.999634 
	C867.907043,380.429077 860.730286,379.461182 853.279236,377.347839 
	C860.077026,377.025574 867.126709,376.976227 874.574829,376.999634 
z"/>
<path fill="#05BFA0" opacity="1.000000" stroke="none" 
	d="
M948.988403,406.482788 
	C948.397827,404.993652 947.231934,403.070587 947.139282,401.097107 
	C946.865906,395.278320 947.143616,389.434998 946.931396,383.611237 
	C946.861328,381.686890 945.956238,379.792938 945.241211,377.495605 
	C947.760376,376.369812 948.916870,377.108093 948.863525,380.204437 
	C948.715210,388.808777 948.869080,397.418304 948.988403,406.482788 
z"/>
<path fill="#05BFA0" opacity="1.000000" stroke="none" 
	d="
M800.576050,376.995789 
	C794.581055,380.382233 788.070557,379.534973 781.278564,377.344543 
	C787.410828,377.021210 793.794312,376.971588 800.576050,376.995789 
z"/>
<path fill="#05BFA0" opacity="1.000000" stroke="none" 
	d="
M949.433594,854.867676 
	C950.946777,854.274841 952.915466,853.185791 954.915649,853.124451 
	C962.400269,852.895020 969.895203,853.002014 977.804688,852.967529 
	C976.833069,853.574097 975.454407,854.702515 974.051147,854.733948 
	C966.005188,854.914551 957.953430,854.834717 949.433594,854.867676 
z"/>
<path fill="#05B699" opacity="1.000000" stroke="none" 
	d="
M259.507385,794.990479 
	C257.845062,795.612305 255.732971,796.740356 253.585403,796.812500 
	C246.119324,797.063354 238.640945,796.947998 230.716003,796.998779 
	C231.622742,796.372375 232.968155,795.185913 234.340790,795.153564 
	C242.570831,794.959290 250.807129,795.030396 259.507385,794.990479 
z"/>
<path fill="#05E1BA" opacity="1.000000" stroke="none" 
	d="
M445.060425,525.534058 
	C444.675140,524.392944 444.078278,522.787842 444.071320,521.180298 
	C444.001251,504.981476 444.011597,488.782135 444.058105,472.583160 
	C444.061829,471.292419 444.503296,470.002899 444.914612,468.334167 
	C445.099518,486.993317 445.111084,506.031128 445.060425,525.534058 
z"/>
<path fill="#05BFA0" opacity="1.000000" stroke="none" 
	d="
M980.431763,825.208557 
	C987.737427,824.980835 995.502441,824.858459 1003.644348,824.906128 
	C996.311218,825.155457 988.601074,825.234619 980.431763,825.208557 
z"/>
<path fill="#05BFA0" opacity="1.000000" stroke="none" 
	d="
M733.924194,378.604248 
	C729.128479,378.916321 724.345337,378.921539 719.067383,378.927368 
	C719.533508,378.237457 720.465027,377.005981 721.460571,376.951904 
	C725.358337,376.740143 729.276367,376.900208 733.583130,376.994446 
	C733.965210,377.476959 733.950928,377.887146 733.924194,378.604248 
z"/>
<path fill="#05BFA0" opacity="1.000000" stroke="none" 
	d="
M718.458252,607.435242 
	C718.710938,613.133118 718.856873,619.289917 718.785156,625.732544 
	C718.495544,619.976929 718.423584,613.935547 718.458252,607.435242 
z"/>
<path fill="#05BFA0" opacity="1.000000" stroke="none" 
	d="
M926.585327,376.999847 
	C923.286987,380.037109 919.437073,379.521118 915.274414,377.345520 
	C918.751221,377.026337 922.474915,376.976807 926.585327,376.999847 
z"/>
<path fill="#05BFA0" opacity="1.000000" stroke="none" 
	d="
M718.458008,579.435791 
	C718.710327,584.468384 718.854675,589.958679 718.781555,595.734863 
	C718.492676,590.645020 718.421326,585.269348 718.458008,579.435791 
z"/>
<path fill="#05BFA0" opacity="1.000000" stroke="none" 
	d="
M718.456604,724.426880 
	C718.709473,727.473267 718.853027,730.968567 718.782959,734.740356 
	C718.495239,731.636536 718.421326,728.256226 718.456604,724.426880 
z"/>
<path fill="#05BFA0" opacity="1.000000" stroke="none" 
	d="
M718.459839,435.414551 
	C718.704224,437.487946 718.840576,439.997711 718.770630,442.764099 
	C718.493591,440.630768 718.422729,438.240875 718.459839,435.414551 
z"/>
<path fill="#05BFA0" opacity="1.000000" stroke="none" 
	d="
M718.458740,453.407776 
	C718.702209,455.160858 718.838562,457.344574 718.771851,459.774506 
	C718.496399,457.959930 718.423950,455.899170 718.458740,453.407776 
z"/>
<path fill="#05BFA0" opacity="1.000000" stroke="none" 
	d="
M904.698486,377.000122 
	C903.771057,377.225189 902.568604,377.376038 901.196777,377.301086 
	C902.159424,377.025513 903.291504,376.975708 904.698486,377.000122 
z"/>
<path fill="#05BFA0" opacity="1.000000" stroke="none" 
	d="
M718.458801,381.187073 
	C719.004211,382.253510 719.445435,383.672516 719.886475,385.464203 
	C719.551208,385.687073 719.216187,385.537292 718.723572,385.287598 
	C718.495544,383.971649 718.425110,382.755676 718.458801,381.187073 
z"/>
<path fill="#03C9A5" opacity="1.000000" stroke="none" 
	d="
M736.395630,795.051453 
	C737.221069,794.812561 738.441650,794.654358 739.830811,794.731018 
	C738.929810,795.021301 737.860291,795.076721 736.395630,795.051453 
z"/>
<path fill="#05BFA0" opacity="1.000000" stroke="none" 
	d="
M718.461548,702.372925 
	C718.688782,703.199768 718.810364,704.423157 718.750488,705.833618 
	C718.498047,704.936890 718.427063,703.853210 718.461548,702.372925 
z"/>
<path fill="#05BFA0" opacity="1.000000" stroke="none" 
	d="
M839.786743,377.003662 
	C839.394531,377.184509 838.815979,377.291626 838.132324,377.238281 
	C838.551636,377.028564 839.075989,376.979248 839.786743,377.003662 
z"/>
<path fill="#05BFA0" opacity="1.000000" stroke="none" 
	d="
M718.472961,550.311279 
	C718.658325,550.578918 718.749023,551.183899 718.704224,551.906250 
	C718.505249,551.565369 718.441772,551.106934 718.472961,550.311279 
z"/>
<path fill="#05D5AC" opacity="1.000000" stroke="none" 
	d="
M718.284729,882.805786 
	C717.993225,883.038879 717.793274,883.029663 717.293701,883.003052 
	C717.292480,882.454651 717.590942,881.923584 718.041809,881.219849 
	C718.254944,881.552551 718.315674,882.058105 718.284729,882.805786 
z"/>
<path fill="#03C9A5" opacity="1.000000" stroke="none" 
	d="
M570.673462,795.269653 
	C570.429932,795.528259 569.879272,795.684631 569.040344,795.857178 
	C569.290161,795.638062 569.828247,795.402710 570.673462,795.269653 
z"/>
<path fill="#05BFA0" opacity="1.000000" stroke="none" 
	d="
M718.512817,793.333618 
	C718.947327,793.445557 719.318054,793.938477 719.841675,794.700012 
	C719.479431,794.550598 718.964233,794.132629 718.512817,793.333618 
z"/>
<path fill="#03C9A5" opacity="1.000000" stroke="none" 
	d="
M813.742126,377.068909 
	C813.979126,377.121643 813.625427,377.197296 813.625427,377.197296 
	C813.625427,377.197296 813.264832,377.184753 813.148071,377.153595 
	C813.031250,377.122437 813.505127,377.016205 813.742126,377.068909 
z"/>
<path fill="#06152B" opacity="1.000000" stroke="none" 
	d="
M859.999939,587.320190 
	C841.063049,587.321899 822.626160,587.321899 804.149902,587.321899 
	C804.149902,547.107300 804.149902,507.548859 804.149902,467.553192 
	C842.126709,467.553192 879.503845,467.553192 917.679688,467.553192 
	C917.679688,477.058685 917.679688,486.750000 917.679688,496.932983 
	C928.048523,496.932983 937.637146,496.932983 947.666870,496.932983 
	C947.666870,517.308472 947.666870,537.181335 947.666870,557.678162 
	C937.877197,557.678162 928.145752,557.678162 917.834900,557.678162 
	C917.834900,567.696350 917.834900,577.108643 917.834900,587.318420 
	C898.332336,587.318420 879.416199,587.318420 859.999939,587.320190 
z"/>
<path fill="#06162B" opacity="1.000000" stroke="none" 
	d="
M948.101562,753.963379 
	C948.054443,757.621216 948.018616,760.785645 947.944641,763.949097 
	C947.937622,764.250244 947.691467,764.545715 947.339172,765.323059 
	C937.948303,765.323059 928.328857,765.323059 917.997070,765.323059 
	C917.997070,775.309937 917.997070,784.848206 917.997070,794.741638 
	C879.877747,794.741638 842.477905,794.741638 804.661377,794.741638 
	C804.661377,755.522888 804.661377,716.327148 804.661377,676.796509 
	C842.362793,676.796509 879.752197,676.796509 917.789978,676.796509 
	C917.789978,686.410339 917.789978,695.797363 917.789978,705.711060 
	C928.017578,705.711060 937.613525,705.711060 948.102417,705.711060 
	C948.102417,721.981018 948.102417,737.725342 948.101562,753.963379 
z"/>
</svg>